# hexagonal cylinder

v 100 0 -100
v 100 0  100
v 50 86.6025403784 -100
v 50 86.6025403784 100
v -50 86.6025403784 -100
v -50 86.6025403784 100
v -100 0 -100
v -100 0  100
v -50 -86.6025403784 -100
v -50 -86.6025403784 100
v 50 -86.6025403784 -100
v 50 -86.6025403784 100

vt 0 0
vt 0 1
vt 0.166666666667 0
vt 0.166666666667 1
vt 0.333333333333 0
vt 0.333333333333 1
vt 0.5 0
vt 0.5 1
vt 0.666666666667 0
vt 0.666666666667 1
vt 0.833333333333 0
vt 0.833333333333 1
vt 1 0
vt 1 1

vn 1 0 0
vn .5 0.866025403784 0
vn -.5 0.866025403784 0
vn -1 0 0
vn -.5 -0.866025403784 0
vn .5 -0.866025403784 0

f 1/1/1 3/3/2 2/2/1
f 3/3/2 4/4/2 2/2/1
f 3/3/2 5/5/3 4/4/2
f 5/5/3 6/6/3 4/4/2
f 5/5/3 7/7/4 6/6/3
f 7/7/4 8/8/4 6/6/3
f 7/7/4 9/9/5 8/8/4
f 9/9/5 10/10/5 8/8/4
f 9/9/5 11/11/6 10/10/5
f 11/11/6 12/12/6 10/10/5
f 11/11/6 1/13/1 12/12/6
f 1/13/1 2/14/1 12/12/6
